<svg id="svg" xmlns="http://www.w3.org/2000/svg" xmlns:xlink="http://www.w3.org/1999/xlink" width="400" height="379.69094922737304" viewBox="0, 0, 400,379.69094922737304"><g id="svgg"><path id="path0" d="M238.852 28.279 C 236.545 29.249,233.366 30.703,231.788 31.509 C 230.210 32.316,226.932 33.608,224.503 34.381 C 222.075 35.155,219.393 36.008,218.543 36.278 C 217.693 36.549,216.428 37.245,215.731 37.827 C 214.163 39.135,212.152 40.193,210.751 40.447 C 209.019 40.761,204.347 43.043,200.990 45.215 C 199.268 46.329,197.750 47.241,197.618 47.241 C 196.997 47.241,190.314 51.473,188.666 52.910 C 186.052 55.189,184.446 56.370,182.323 57.576 C 179.079 59.418,159.462 78.582,156.521 82.781 C 155.501 84.238,153.591 86.857,152.278 88.601 C 150.964 90.344,149.494 92.529,149.011 93.457 C 148.528 94.385,146.906 97.185,145.407 99.680 C 143.907 102.175,142.382 105.092,142.017 106.162 C 141.653 107.231,140.550 109.292,139.566 110.741 C 137.814 113.321,136.549 116.835,135.248 122.737 C 134.900 124.316,133.831 127.959,132.873 130.833 C 129.309 141.523,128.765 159.892,131.742 169.015 C 136.663 184.091,139.251 190.955,140.596 192.492 C 140.916 192.858,141.592 193.982,142.099 194.990 C 142.606 195.999,143.698 197.390,144.526 198.081 C 145.354 198.772,146.685 200.409,147.485 201.718 C 148.909 204.050,152.949 206.623,155.187 206.623 C 155.562 206.623,156.091 207.109,156.362 207.704 C 156.915 208.918,158.941 209.817,159.853 209.253 C 160.588 208.799,159.398 207.323,157.507 206.345 C 156.838 206.000,156.291 205.399,156.291 205.010 C 156.291 203.992,152.077 196.345,150.959 195.334 C 146.986 191.744,143.690 170.502,145.243 158.499 C 146.102 151.855,148.303 142.086,149.321 140.397 C 149.833 139.547,151.631 136.170,153.315 132.892 C 155.000 129.614,156.727 126.534,157.155 126.049 C 157.582 125.563,158.794 123.874,159.848 122.296 C 160.902 120.717,163.075 118.035,164.677 116.336 C 166.278 114.636,168.224 112.317,169.001 111.184 C 170.620 108.819,176.454 103.649,178.954 102.362 C 179.885 101.883,182.269 100.207,184.252 98.637 C 186.236 97.068,189.647 94.866,191.832 93.744 C 194.018 92.621,196.333 91.335,196.978 90.885 C 197.622 90.435,198.452 90.066,198.821 90.066 C 199.190 90.066,202.437 88.589,206.037 86.783 C 212.473 83.556,215.913 82.388,225.029 80.335 C 229.210 79.393,230.678 78.712,232.278 76.971 C 233.965 75.136,235.762 72.308,235.762 71.487 C 235.762 71.094,236.358 69.950,237.086 68.944 C 237.815 67.939,238.411 66.756,238.411 66.317 C 238.411 65.878,238.582 65.330,238.790 65.099 C 239.322 64.513,240.401 60.969,241.469 56.303 C 242.008 53.951,243.255 50.543,244.541 47.915 C 246.874 43.145,247.199 42.253,248.569 36.865 C 249.063 34.923,249.666 32.575,249.908 31.648 C 251.190 26.746,246.150 25.211,238.852 28.279 M76.564 66.581 C 74.733 68.949,73.256 74.398,72.172 82.781 C 71.796 85.695,71.404 88.377,71.302 88.742 C 71.199 89.106,70.999 90.397,70.856 91.611 C 70.714 92.826,70.408 95.274,70.177 97.052 C 68.942 106.564,69.877 135.225,71.786 146.358 C 73.142 154.262,78.641 172.395,81.208 177.428 C 82.035 179.049,82.943 181.231,84.766 185.972 C 85.207 187.120,86.393 189.206,87.402 190.608 C 88.411 192.010,89.870 194.093,90.645 195.238 C 94.295 200.634,99.433 207.169,102.544 210.375 C 104.429 212.318,106.423 214.603,106.975 215.453 C 107.528 216.302,108.631 217.395,109.427 217.881 C 110.684 218.648,117.712 224.367,118.322 225.119 C 118.751 225.648,121.800 227.815,122.114 227.815 C 122.290 227.815,123.048 228.278,123.799 228.845 C 126.436 230.833,129.225 232.225,133.577 233.724 C 135.993 234.556,140.847 236.250,144.365 237.489 C 161.127 243.393,186.061 242.489,187.314 235.931 C 187.620 234.333,186.916 234.175,176.950 233.605 C 165.549 232.954,159.860 231.655,150.814 227.636 C 143.052 224.188,129.026 212.404,125.360 206.251 C 124.541 204.877,122.693 202.169,121.253 200.233 C 119.431 197.783,118.307 195.706,117.553 193.399 C 116.958 191.577,115.910 189.377,115.223 188.510 C 112.637 185.245,111.550 181.818,109.695 171.082 C 109.276 168.653,108.589 165.773,108.169 164.680 C 106.459 160.232,105.754 155.052,105.765 147.020 C 105.776 138.929,105.834 138.565,108.529 129.801 C 109.014 128.223,109.732 124.051,110.124 120.530 C 110.516 117.009,111.153 112.936,111.538 111.479 C 113.257 104.987,111.657 100.246,105.588 93.853 C 103.486 91.639,99.978 87.758,97.792 85.228 C 95.607 82.698,92.807 79.524,91.571 78.173 C 90.334 76.822,88.498 74.585,87.490 73.202 C 86.482 71.818,85.146 70.328,84.522 69.890 C 83.898 69.453,82.456 68.256,81.318 67.231 C 78.922 65.072,77.844 64.925,76.564 66.581 M238.852 103.330 C 234.466 103.633,225.018 105.741,222.851 106.900 C 221.797 107.465,220.622 107.826,215.147 109.268 C 210.840 110.402,206.834 112.223,203.822 114.414 C 202.812 115.148,200.199 116.622,198.013 117.691 C 187.508 122.826,175.168 135.588,169.311 147.376 C 168.214 149.584,167.123 151.510,166.887 151.656 C 166.651 151.802,166.143 153.054,165.759 154.437 C 165.374 155.821,164.775 157.703,164.428 158.618 C 164.005 159.734,163.797 162.075,163.797 165.716 L 163.797 171.149 165.126 170.954 C 166.030 170.822,166.524 170.458,166.672 169.817 C 166.792 169.298,167.186 167.429,167.547 165.664 C 168.341 161.783,169.328 159.757,171.734 157.069 C 172.736 155.950,174.310 153.876,175.232 152.462 C 182.171 141.819,198.937 131.235,213.569 128.260 C 215.455 127.876,218.190 127.150,219.647 126.647 C 227.729 123.852,246.646 125.234,256.512 129.340 C 257.605 129.795,260.088 130.486,262.031 130.877 C 263.974 131.268,267.152 132.358,269.095 133.300 C 271.038 134.242,273.620 135.337,274.834 135.734 C 276.049 136.131,277.837 136.928,278.808 137.505 C 279.779 138.083,281.803 139.258,283.306 140.115 C 287.663 142.603,297.259 150.044,300.785 153.670 C 310.187 163.338,314.776 166.246,320.530 166.186 C 325.843 166.130,344.607 163.192,346.297 162.152 C 347.275 161.549,353.471 160.197,358.057 159.585 C 370.207 157.963,371.149 156.374,363.882 149.761 C 361.558 147.646,358.353 144.620,356.760 143.035 C 355.167 141.451,352.762 139.535,351.416 138.778 C 350.070 138.021,347.685 136.313,346.118 134.983 C 343.575 132.825,339.303 129.819,335.368 127.419 C 325.440 121.365,320.596 118.794,315.281 116.759 C 311.976 115.494,308.377 113.948,307.285 113.325 C 304.402 111.679,297.864 109.256,294.040 108.416 C 292.219 108.016,288.895 107.190,286.655 106.581 C 273.591 103.030,258.296 101.990,238.852 103.330 M220.088 147.831 C 218.389 148.480,216.446 149.384,215.773 149.839 C 215.099 150.295,213.908 150.799,213.126 150.959 C 212.327 151.122,211.645 151.564,211.567 151.968 C 211.405 152.807,213.334 153.243,220.971 154.094 C 227.597 154.833,238.805 158.494,243.945 161.599 C 245.946 162.808,247.782 163.797,248.024 163.797 C 249.938 163.797,263.629 175.941,266.100 179.830 C 266.746 180.846,268.000 182.472,268.887 183.444 C 270.246 184.933,273.276 189.601,275.944 194.317 C 276.305 194.956,277.142 196.286,277.805 197.273 C 278.467 198.260,279.433 200.619,279.952 202.514 C 280.471 204.409,281.180 206.632,281.528 207.454 C 282.457 209.647,284.646 219.479,285.225 224.062 C 285.502 226.247,286.207 230.137,286.793 232.707 C 288.019 238.082,288.133 242.183,287.214 247.903 C 286.863 250.088,286.353 253.267,286.080 254.967 C 284.765 263.169,283.309 269.800,281.837 274.298 C 280.991 276.884,280.721 278.601,280.749 281.234 C 280.792 285.186,280.814 285.235,285.210 290.896 C 287.837 294.279,290.407 297.276,298.455 306.339 C 300.033 308.116,301.535 309.960,301.793 310.436 C 302.211 311.208,304.439 313.715,310.207 319.903 C 312.140 321.978,312.914 322.187,315.748 321.399 C 319.189 320.444,320.425 316.004,321.642 300.221 C 322.007 295.486,322.622 289.327,323.009 286.534 C 323.806 280.777,323.649 258.213,322.789 254.967 C 322.531 253.996,322.102 250.121,321.834 246.358 C 321.145 236.660,319.617 228.877,317.920 226.419 C 316.746 224.718,314.931 219.323,313.019 211.857 C 312.730 210.729,311.909 209.097,311.194 208.229 C 310.479 207.361,308.594 204.078,307.006 200.933 C 305.418 197.788,303.474 194.454,302.685 193.523 C 301.896 192.593,300.323 190.122,299.189 188.031 C 297.772 185.420,296.021 183.094,293.596 180.599 C 291.655 178.602,290.066 176.791,290.066 176.574 C 290.066 176.357,289.034 175.364,287.773 174.367 C 286.511 173.370,284.968 171.868,284.344 171.031 C 283.300 169.631,279.666 166.794,275.276 163.951 C 274.305 163.322,273.013 162.347,272.406 161.784 C 270.197 159.736,255.215 152.531,250.552 151.274 C 248.124 150.619,244.746 149.686,243.046 149.200 C 232.918 146.302,225.286 145.847,220.088 147.831 M208.830 153.434 C 207.737 154.083,207.744 154.089,209.492 153.977 C 210.464 153.914,211.219 153.664,211.171 153.422 C 211.033 152.719,210.026 152.724,208.830 153.434 M236.203 181.236 C 235.432 182.165,236.368 184.384,238.252 186.093 C 240.755 188.363,244.865 197.403,246.582 204.415 C 246.909 205.751,247.714 208.929,248.371 211.479 C 250.100 218.195,250.132 224.473,248.461 229.360 C 247.797 231.302,246.750 235.636,246.134 238.990 C 245.022 245.043,242.787 251.358,240.403 255.188 C 239.874 256.038,238.712 258.124,237.822 259.823 C 236.932 261.523,234.911 264.404,233.331 266.225 C 231.751 268.046,229.557 270.876,228.454 272.514 C 227.352 274.152,225.766 275.957,224.930 276.525 C 224.094 277.093,222.827 278.362,222.116 279.344 C 221.405 280.326,219.482 282.097,217.844 283.280 C 216.205 284.463,214.053 286.152,213.061 287.034 C 212.070 287.915,209.768 289.566,207.947 290.702 C 206.126 291.837,203.841 293.345,202.870 294.053 C 201.898 294.760,200.210 295.687,199.117 296.112 C 198.024 296.538,195.740 297.669,194.040 298.627 C 188.769 301.597,186.012 302.834,182.534 303.788 C 180.690 304.294,177.557 305.360,175.573 306.156 C 173.588 306.953,170.985 307.749,169.787 307.925 C 161.822 309.099,158.060 312.151,156.739 318.512 C 156.456 319.876,155.459 322.626,154.523 324.624 C 153.587 326.622,152.000 331.084,150.996 334.540 C 149.131 340.963,147.728 344.769,145.883 348.409 C 142.587 354.913,143.572 360.706,147.974 360.706 C 150.360 360.706,162.013 357.586,165.342 356.055 C 166.071 355.720,168.653 354.521,171.082 353.389 C 173.510 352.257,176.679 350.940,178.124 350.461 C 179.568 349.982,181.555 349.047,182.539 348.384 C 183.522 347.722,186.611 346.032,189.404 344.631 C 192.196 343.230,195.375 341.448,196.468 340.672 C 197.561 339.896,200.077 338.316,202.060 337.160 C 204.042 336.005,205.922 334.749,206.236 334.371 C 206.550 333.992,208.008 332.872,209.474 331.881 C 210.941 330.891,212.415 329.699,212.750 329.233 C 213.085 328.766,214.181 327.859,215.185 327.217 C 218.125 325.335,222.497 321.786,224.454 319.691 C 225.453 318.623,227.702 316.239,229.452 314.393 C 231.203 312.548,233.190 310.301,233.867 309.402 C 234.545 308.502,236.367 306.223,237.916 304.337 C 239.466 302.451,241.087 300.082,241.520 299.073 C 241.952 298.064,243.317 296.195,244.553 294.920 C 245.788 293.645,246.799 292.354,246.799 292.051 C 246.799 291.369,251.583 282.028,253.026 279.892 C 253.608 279.031,254.646 276.349,255.333 273.931 C 257.488 266.344,258.291 263.883,259.574 260.927 C 264.104 250.491,264.594 225.388,260.478 214.570 C 259.693 212.506,258.211 208.333,257.186 205.298 C 254.849 198.380,253.856 196.438,251.223 193.631 C 250.067 192.399,248.813 190.785,248.436 190.044 C 248.059 189.303,246.121 187.217,244.130 185.408 C 238.698 180.473,237.402 179.791,236.203 181.236 M65.784 222.150 C 55.457 224.899,45.585 226.932,42.565 226.932 C 39.500 226.932,28.983 228.787,27.344 229.616 C 26.964 229.809,26.282 231.057,25.829 232.390 L 25.005 234.814 27.403 237.095 C 28.722 238.350,31.291 240.812,33.113 242.566 C 34.934 244.320,37.555 246.477,38.937 247.359 C 40.320 248.242,42.207 249.634,43.132 250.453 C 44.056 251.272,46.302 252.863,48.124 253.988 C 49.945 255.114,52.101 256.646,52.915 257.394 C 53.729 258.141,55.617 259.369,57.109 260.122 C 58.602 260.875,61.711 262.723,64.018 264.228 C 66.325 265.733,71.490 268.556,75.497 270.501 C 82.686 273.991,83.513 274.329,88.300 275.723 C 91.591 276.681,96.577 278.591,98.428 279.602 C 100.054 280.491,108.313 282.286,113.024 282.775 C 114.603 282.939,118.938 283.554,122.658 284.143 C 131.653 285.567,153.511 285.551,155.828 284.120 C 155.987 284.022,158.291 283.721,160.950 283.452 C 163.609 283.183,166.678 282.689,167.770 282.354 C 168.863 282.020,170.971 281.434,172.455 281.053 C 174.873 280.433,177.175 279.539,189.501 274.437 C 191.376 273.661,193.363 272.615,193.917 272.113 C 194.470 271.611,196.611 270.209,198.675 268.999 C 202.356 266.840,210.471 259.551,212.951 256.176 C 213.532 255.385,214.780 254.178,215.724 253.494 C 216.804 252.711,217.920 251.282,218.737 249.635 C 219.450 248.197,220.789 246.053,221.712 244.870 C 227.604 237.325,229.894 225.141,225.355 225.484 C 223.609 225.616,222.145 227.466,219.494 232.892 C 216.821 238.364,210.054 245.651,204.194 249.368 C 202.252 250.601,200.166 251.990,199.558 252.456 C 196.348 254.918,186.041 259.266,180.468 260.509 C 170.966 262.627,140.610 261.412,134.362 258.663 C 131.898 257.580,122.366 254.032,120.088 253.350 C 119.238 253.096,118.344 252.728,118.102 252.533 C 117.859 252.337,115.773 251.095,113.466 249.774 C 107.090 246.120,104.129 244.250,102.891 243.094 C 102.272 242.516,101.071 241.697,100.221 241.273 C 98.612 240.471,96.336 238.436,90.318 232.420 C 88.358 230.460,85.861 228.240,84.768 227.486 C 83.675 226.732,81.725 225.007,80.435 223.653 L 78.088 221.192 75.063 221.192 C 73.398 221.192,71.772 221.104,71.449 220.996 C 71.126 220.887,68.576 221.407,65.784 222.150 " stroke="none" fill="#15803d" fill-rule="evenodd"></path></g></svg>