<svg id="svg" xmlns="http://www.w3.org/2000/svg" xmlns:xlink="http://www.w3.org/1999/xlink" width="400" height="84.09090909090908" viewBox="0, 0, 400,84.09090909090908"><g id="svgg"><path id="path0" d="M14.286 2.625 C 8.521 3.449,3.776 7.703,2.076 13.572 L 1.705 14.854 1.705 42.208 L 1.705 69.562 2.071 70.826 C 3.664 76.321,7.533 80.032,13.312 81.608 C 14.616 81.963,382.003 82.165,385.139 81.812 C 391.453 81.101,396.457 76.776,398.092 70.617 L 398.458 69.237 398.458 42.127 C 398.458 17.029,398.437 14.942,398.180 14.012 C 396.593 8.281,392.849 4.485,387.188 2.868 L 385.958 2.516 200.649 2.495 C 87.372 2.483,14.931 2.533,14.286 2.625 M386.097 7.887 C 389.343 8.725,392.119 11.478,393.135 14.869 C 393.524 16.165,393.640 66.730,393.259 68.824 C 392.648 72.185,390.095 75.100,386.688 76.325 L 385.633 76.705 200.514 76.745 C 34.168 76.782,15.285 76.761,14.313 76.536 C 10.873 75.740,8.122 73.103,7.036 69.562 C 6.751 68.633,6.737 67.356,6.737 42.045 L 6.737 15.503 7.116 14.448 C 8.263 11.253,10.784 8.824,13.880 7.933 C 15.324 7.518,384.487 7.472,386.097 7.887 M240.097 21.965 L 239.529 22.159 239.488 38.007 C 239.450 52.587,239.468 53.873,239.715 54.078 C 240.295 54.561,244.537 54.466,245.043 53.959 C 245.347 53.656,245.429 22.961,245.128 22.399 C 244.799 21.785,241.469 21.498,240.097 21.965 M109.617 24.017 C 109.224 24.081,108.827 24.264,108.696 24.443 C 108.317 24.961,98.819 52.455,98.738 53.271 C 98.632 54.342,98.838 54.420,101.631 54.355 C 104.458 54.289,104.235 54.508,105.506 50.528 L 106.503 47.403 112.248 47.403 L 117.992 47.403 119.075 50.650 C 120.410 54.655,120.096 54.383,123.382 54.383 C 126.393 54.383,126.565 54.318,126.411 53.230 C 126.277 52.286,116.628 24.675,116.326 24.374 C 115.875 23.922,111.597 23.695,109.617 24.017 M184.903 23.965 C 184.679 24.007,184.296 24.120,184.050 24.216 L 183.604 24.390 183.604 39.151 L 183.604 53.913 184.167 54.148 C 184.548 54.307,185.335 54.383,186.607 54.383 C 187.879 54.383,188.666 54.307,189.047 54.148 L 189.610 53.913 189.610 47.573 L 189.610 41.234 195.373 41.234 L 201.136 41.234 201.136 47.573 L 201.136 53.913 201.699 54.148 C 202.474 54.471,205.806 54.471,206.580 54.148 L 207.143 53.913 207.143 39.217 L 207.143 24.520 206.704 24.233 C 206.137 23.861,202.503 23.814,201.666 24.167 L 201.140 24.388 201.098 30.173 L 201.055 35.958 195.333 36.000 L 189.610 36.043 189.610 30.282 L 189.610 24.520 189.189 24.244 C 188.766 23.967,185.887 23.780,184.903 23.965 M51.842 24.629 C 51.526 25.385,51.590 28.222,51.932 28.634 C 52.122 28.862,52.661 28.896,56.108 28.896 L 60.065 28.896 60.065 41.216 C 60.065 55.896,59.746 54.274,62.652 54.360 C 63.734 54.391,64.855 54.372,65.142 54.317 C 66.233 54.107,66.145 55.150,66.234 41.443 L 66.315 28.977 70.308 28.934 L 74.301 28.891 74.496 28.464 C 74.760 27.883,74.748 25.114,74.478 24.550 L 74.265 24.107 63.180 24.065 L 52.095 24.024 51.842 24.629 M79.184 24.309 C 78.408 24.790,78.409 24.764,78.409 39.188 C 78.410 54.500,78.354 53.765,79.545 54.171 C 80.380 54.456,95.444 54.464,95.832 54.180 C 96.501 53.690,96.501 50.206,95.832 49.716 C 95.623 49.563,94.201 49.513,90.066 49.513 L 84.578 49.513 84.578 45.211 L 84.578 40.909 89.282 40.909 C 93.983 40.909,93.986 40.909,94.218 40.544 C 94.555 40.012,94.690 38.928,94.559 37.801 C 94.366 36.136,94.585 36.201,89.205 36.201 L 84.578 36.201 84.578 32.468 L 84.578 28.734 90.173 28.734 L 95.768 28.734 95.974 28.369 C 96.104 28.140,96.181 27.395,96.181 26.380 C 96.181 25.365,96.104 24.620,95.974 24.391 L 95.768 24.026 87.697 24.030 C 80.404 24.034,79.584 24.061,79.184 24.309 M131.656 24.310 C 130.459 24.908,130.520 24.071,130.520 39.793 C 130.520 52.677,130.542 53.875,130.788 54.079 C 130.988 54.245,131.646 54.302,133.360 54.302 C 136.586 54.302,136.201 56.068,136.201 41.263 C 136.201 34.336,136.263 28.738,136.338 28.823 C 136.413 28.908,138.365 34.489,140.676 41.226 C 143.289 48.845,145.011 53.631,145.233 53.888 C 145.687 54.417,150.234 54.542,150.737 54.040 C 150.881 53.897,152.997 48.173,155.440 41.321 C 157.882 34.470,159.922 28.822,159.973 28.772 C 160.024 28.721,160.065 34.357,160.065 41.296 L 160.065 53.913 160.658 54.161 C 161.436 54.486,165.066 54.423,165.481 54.077 C 165.731 53.870,165.749 52.727,165.709 39.510 L 165.666 25.169 165.135 24.638 L 164.605 24.107 161.536 24.057 C 155.976 23.966,156.862 22.858,151.858 36.161 C 149.902 41.362,148.264 45.617,148.217 45.616 C 148.171 45.616,146.526 41.179,144.562 35.757 C 139.987 23.129,140.717 24.026,135.016 24.026 C 132.683 24.026,132.131 24.073,131.656 24.310 M34.984 25.652 C 34.627 25.820,33.860 26.158,33.279 26.401 C 26.679 29.167,23.175 36.817,26.462 41.285 C 26.929 41.921,27.880 42.629,28.045 42.464 C 28.092 42.417,28.011 42.332,27.864 42.275 C 27.717 42.219,27.597 42.093,27.597 41.996 C 27.597 41.899,27.397 41.530,27.151 41.175 C 26.440 40.150,26.476 37.046,27.214 35.633 C 28.535 33.106,30.710 31.409,33.927 30.395 C 34.912 30.084,35.022 29.939,35.678 28.084 C 36.668 25.286,36.560 24.907,34.984 25.652 M19.985 29.566 C 19.092 32.126,19.480 37.023,20.806 39.935 C 22.514 43.684,27.214 46.395,30.103 45.296 C 30.738 45.055,30.600 44.806,29.830 44.801 C 26.564 44.782,24.113 42.501,23.206 38.637 C 22.831 37.042,22.841 36.510,23.283 34.189 C 23.564 32.716,23.481 32.011,22.990 31.693 C 22.890 31.628,22.309 31.009,21.698 30.317 C 20.468 28.922,20.243 28.824,19.985 29.566 M114.377 36.080 C 115.514 39.495,116.478 42.380,116.519 42.492 C 116.577 42.651,115.661 42.695,112.274 42.695 C 109.898 42.695,107.955 42.639,107.955 42.571 C 107.955 42.272,112.137 29.870,112.238 29.870 C 112.278 29.870,113.241 32.664,114.377 36.080 M221.344 31.492 C 215.545 32.344,212.342 36.590,212.342 43.425 C 212.342 50.629,215.623 54.405,222.240 54.817 C 230.326 55.320,234.893 50.520,234.528 41.902 C 234.200 34.124,229.371 30.312,221.344 31.492 M261.364 31.592 C 260.164 31.913,258.595 32.869,257.265 34.089 L 256.169 35.094 256.169 33.703 C 256.169 32.385,256.147 32.298,255.746 32.036 C 255.219 31.690,252.591 31.647,251.809 31.971 L 251.299 32.182 251.299 43.019 C 251.299 52.892,251.323 53.876,251.567 54.079 C 251.914 54.369,255.513 54.485,256.350 54.234 C 257.163 53.991,257.138 54.236,257.141 46.385 L 257.143 39.442 258.320 38.258 C 260.883 35.679,263.253 35.732,264.481 38.395 C 264.848 39.193,264.855 39.314,264.935 46.556 C 265.024 54.624,264.952 54.110,266.028 54.317 C 266.958 54.496,270.217 54.323,270.511 54.079 C 270.753 53.878,270.779 53.152,270.779 46.680 L 270.779 39.504 272.059 38.259 C 274.239 36.137,275.899 35.816,277.408 37.224 C 278.592 38.328,278.731 39.398,278.733 47.437 L 278.734 54.045 279.346 54.229 C 280.201 54.485,283.794 54.373,284.148 54.079 C 284.529 53.762,284.548 38.887,284.170 37.094 C 282.879 30.973,276.380 29.391,271.144 33.924 L 269.832 35.059 269.422 34.358 C 268.017 31.960,264.497 30.752,261.364 31.592 M322.240 31.582 C 321.263 31.887,319.871 33.012,318.942 34.249 L 318.182 35.259 318.182 33.895 C 318.182 33.008,318.105 32.425,317.964 32.231 C 317.533 31.642,314.385 31.538,313.515 32.084 L 313.149 32.313 313.149 43.085 C 313.149 55.797,312.760 54.302,316.071 54.302 C 319.344 54.302,318.994 55.156,318.994 47.178 L 318.994 40.499 319.584 39.623 C 321.269 37.121,322.738 36.437,324.993 37.107 C 326.294 37.493,326.367 37.368,326.433 34.645 C 326.497 32.001,326.406 31.775,325.160 31.508 C 324.081 31.277,323.142 31.300,322.240 31.582 M336.891 31.500 C 331.118 32.537,328.047 37.525,328.583 44.997 C 329.137 52.737,335.002 56.333,343.939 54.413 C 347.590 53.628,347.907 53.360,347.912 51.047 C 347.916 48.805,347.920 48.807,345.500 49.564 C 338.771 51.671,334.941 50.258,334.469 45.495 L 334.369 44.481 341.196 44.481 L 348.023 44.481 348.427 44.000 C 349.408 42.835,349.030 38.454,347.726 35.877 C 346.007 32.479,341.524 30.668,336.891 31.500 M364.448 31.508 C 363.297 31.731,361.556 32.688,360.187 33.851 L 358.929 34.918 358.929 33.866 C 358.929 32.397,358.757 32.027,358.002 31.870 C 356.955 31.652,354.737 31.762,354.292 32.053 L 353.896 32.313 353.896 43.085 C 353.896 55.797,353.507 54.302,356.818 54.302 C 360.097 54.302,359.740 55.234,359.740 46.675 L 359.740 39.493 361.090 38.197 C 363.254 36.119,365.156 35.789,366.694 37.224 C 367.896 38.345,368.019 39.266,368.019 47.147 C 368.019 55.065,367.758 54.278,370.417 54.357 C 374.188 54.468,373.864 55.171,373.864 46.898 C 373.864 38.189,373.680 36.523,372.494 34.500 C 371.069 32.068,367.810 30.857,364.448 31.508 M295.292 31.744 C 291.308 32.823,289.231 35.731,289.489 39.871 C 289.581 41.332,290.191 42.937,290.898 43.578 C 291.217 43.866,291.213 43.879,290.515 44.736 C 288.497 47.212,288.454 50.201,290.416 51.597 L 291.020 52.028 290.018 53.002 C 286.968 55.968,287.477 59.976,291.122 61.700 C 294.480 63.288,301.396 63.184,304.828 61.494 C 309.821 59.037,310.264 52.496,305.587 50.297 C 304.196 49.643,302.655 49.399,299.107 49.273 C 294.273 49.102,293.122 48.428,294.316 46.469 C 294.690 45.857,294.734 45.849,295.654 46.226 C 297.329 46.912,301.019 46.566,303.084 45.530 C 306.097 44.019,307.709 39.506,306.169 36.895 C 305.990 36.593,305.844 36.313,305.844 36.273 C 305.844 36.234,306.463 36.201,307.220 36.201 C 308.911 36.201,309.091 35.992,309.091 34.025 C 309.091 31.750,309.308 31.854,304.302 31.740 C 302.248 31.694,299.582 31.621,298.377 31.579 C 296.743 31.522,295.958 31.564,295.292 31.744 M34.984 32.581 C 31.180 33.464,28.268 36.031,28.442 38.347 L 28.494 39.042 28.685 38.422 C 30.069 33.926,36.980 33.427,41.475 37.498 C 42.623 38.538,42.819 38.574,45.003 38.157 C 48.021 37.579,48.000 37.608,46.388 36.269 C 42.944 33.410,38.124 31.851,34.984 32.581 M299.964 35.858 C 301.732 36.760,302.193 39.577,300.863 41.357 C 299.272 43.488,295.319 42.762,294.629 40.212 C 293.735 36.904,296.920 34.305,299.964 35.858 M341.016 35.851 C 342.261 36.491,342.908 37.493,343.209 39.247 C 343.517 41.047,343.856 40.921,338.843 40.871 L 334.497 40.828 334.529 40.016 C 334.668 36.553,338.099 34.351,341.016 35.851 M225.741 36.369 C 228.979 37.936,229.741 45.733,226.952 48.759 C 225.249 50.607,221.558 50.691,219.957 48.919 C 217.790 46.521,217.685 40.280,219.765 37.543 C 220.936 36.003,223.817 35.437,225.741 36.369 M33.198 36.937 C 32.752 37.161,32.511 37.309,32.664 37.267 C 33.204 37.118,34.834 37.501,35.852 38.017 C 38.853 39.537,40.534 43.703,39.670 47.484 C 39.179 49.633,39.114 49.401,40.751 51.339 C 42.305 53.180,42.367 53.226,42.753 52.841 C 43.247 52.346,43.471 46.410,43.052 44.886 C 41.868 40.581,39.328 37.786,35.743 36.847 C 34.205 36.444,34.179 36.445,33.198 36.937 M35.065 39.869 C 35.065 39.922,35.211 40.151,35.390 40.378 C 38.192 43.941,34.949 49.895,29.266 51.621 C 27.864 52.047,27.949 51.947,27.192 54.058 C 26.202 56.819,26.437 57.102,28.862 56.075 C 35.442 53.289,38.947 47.609,37.244 42.494 C 36.774 41.084,35.065 39.025,35.065 39.869 M19.237 43.684 C 18.969 43.767,18.061 43.947,17.218 44.086 C 15.060 44.439,14.995 44.532,16.154 45.601 C 21.205 50.257,29.026 50.944,32.805 47.065 C 33.993 45.845,34.773 43.994,34.099 43.994 C 34.009 43.994,33.793 44.272,33.619 44.613 C 32.029 47.731,26.461 48.358,22.946 45.816 C 22.486 45.483,21.660 44.828,21.111 44.359 C 20.062 43.463,20.013 43.445,19.237 43.684 M301.650 53.852 C 304.025 54.913,303.314 57.756,300.456 58.624 C 295.509 60.127,291.767 57.097,294.811 54.052 L 295.495 53.369 298.194 53.441 C 300.475 53.503,301.010 53.567,301.650 53.852 M345.982 57.420 L 345.617 57.490 345.617 62.256 L 345.617 67.023 345.982 67.076 C 346.183 67.105,346.548 67.102,346.794 67.069 L 347.240 67.009 347.240 62.238 C 347.240 58.228,347.204 57.468,347.010 57.468 C 346.883 57.468,346.683 57.441,346.564 57.409 C 346.445 57.377,346.183 57.382,345.982 57.420 M354.045 58.070 C 353.683 59.024,354.345 59.661,355.339 59.314 C 355.818 59.147,356.018 58.278,355.673 57.863 C 355.312 57.428,354.238 57.565,354.045 58.070 M310.865 58.401 C 307.708 60.000,307.874 65.733,311.113 66.970 C 312.887 67.648,315.139 66.996,315.228 65.779 C 315.286 65.000,315.230 64.980,314.263 65.419 C 312.065 66.416,310.634 65.297,310.634 62.581 C 310.634 59.812,312.177 58.665,314.348 59.820 C 315.200 60.273,315.323 60.190,315.231 59.228 C 315.113 57.998,312.601 57.522,310.865 58.401 M349.459 58.874 C 349.399 58.934,349.351 59.294,349.351 59.675 C 349.351 60.310,349.313 60.372,348.904 60.419 C 348.179 60.503,348.132 61.688,348.854 61.688 L 349.351 61.688 349.351 63.677 C 349.351 66.511,349.765 67.203,351.461 67.203 C 352.700 67.203,353.388 65.851,352.169 65.812 C 351.135 65.779,351.136 65.781,351.136 63.641 L 351.136 61.688 351.856 61.688 C 352.633 61.688,352.891 61.383,352.679 60.714 C 352.596 60.454,352.433 60.390,351.856 60.390 C 351.145 60.390,351.136 60.383,351.136 59.835 C 351.136 58.917,351.012 58.766,350.253 58.766 C 349.876 58.766,349.518 58.815,349.459 58.874 M318.588 60.369 C 316.607 60.885,315.589 63.441,316.541 65.503 C 317.737 68.096,321.834 67.780,322.651 65.032 C 323.569 61.940,321.531 59.601,318.588 60.369 M327.354 60.334 C 327.175 60.380,326.760 60.630,326.431 60.890 L 325.833 61.362 325.782 60.916 C 325.736 60.518,325.658 60.466,325.041 60.421 L 324.351 60.371 324.351 63.689 L 324.351 67.008 324.756 67.085 C 324.980 67.128,325.345 67.128,325.568 67.085 L 325.974 67.008 325.974 64.852 L 325.974 62.696 326.548 62.192 C 327.957 60.955,328.571 61.731,328.571 64.746 L 328.571 67.008 328.977 67.085 C 329.200 67.128,329.566 67.128,329.789 67.085 L 330.195 67.008 330.195 64.505 C 330.195 60.871,329.456 59.787,327.354 60.334 M333.171 60.396 C 331.122 61.027,331.375 63.270,333.617 64.351 C 335.626 65.320,334.720 66.645,332.623 65.806 C 331.845 65.495,331.557 65.657,331.722 66.314 C 332.025 67.519,335.063 67.519,336.012 66.313 C 336.912 65.168,336.386 63.924,334.678 63.158 C 332.714 62.276,333.169 60.770,335.149 61.598 C 335.984 61.947,336.039 61.927,336.039 61.288 C 336.039 60.438,334.545 59.973,333.171 60.396 M360.308 60.473 C 360.041 60.601,359.666 60.820,359.476 60.960 C 359.149 61.201,359.124 61.192,359.026 60.802 C 358.937 60.447,358.833 60.390,358.276 60.390 L 357.630 60.390 357.630 63.706 C 357.630 67.408,357.570 67.236,358.807 67.069 L 359.253 67.009 359.253 64.852 L 359.253 62.696 359.827 62.192 C 361.220 60.969,361.754 61.630,361.822 64.660 C 361.879 67.257,361.905 67.307,363.068 67.085 L 363.474 67.008 363.474 64.467 C 363.474 60.757,362.441 59.453,360.308 60.473 M366.788 60.424 C 365.445 60.700,364.674 62.331,365.301 63.569 C 365.518 63.998,365.512 64.088,365.238 64.529 C 364.854 65.150,364.855 65.602,365.245 66.096 C 365.551 66.487,365.551 66.493,365.175 66.855 C 363.885 68.097,364.852 69.460,367.127 69.606 C 371.300 69.874,372.486 66.024,368.339 65.670 C 366.510 65.513,366.367 65.467,366.426 65.051 C 366.473 64.724,366.554 64.697,367.324 64.747 C 369.143 64.865,370.196 64.036,370.103 62.559 C 370.052 61.748,370.071 61.699,370.455 61.654 C 370.915 61.601,371.163 60.614,370.749 60.482 C 370.293 60.336,367.417 60.294,366.788 60.424 M337.933 60.498 C 337.762 60.668,337.809 65.114,337.988 65.759 C 338.386 67.193,340.199 67.695,341.516 66.735 C 342.345 66.132,342.370 66.128,342.370 66.628 C 342.370 67.047,342.666 67.188,343.304 67.073 C 343.668 67.008,343.669 67.003,343.669 63.690 L 343.669 60.372 342.898 60.421 L 342.127 60.471 342.082 62.692 L 342.036 64.914 341.541 65.330 C 340.143 66.507,339.546 65.756,339.473 62.727 L 339.418 60.390 338.729 60.390 C 338.351 60.390,337.992 60.438,337.933 60.498 M354.167 60.498 C 354.107 60.557,354.058 62.047,354.058 63.807 L 354.058 67.009 354.507 67.074 C 354.754 67.111,355.137 67.097,355.359 67.045 L 355.763 66.950 355.809 64.035 C 355.867 60.364,355.873 60.390,354.975 60.390 C 354.590 60.390,354.226 60.438,354.167 60.498 M368.465 61.721 C 368.820 62.016,368.717 63.097,368.308 63.384 C 367.536 63.924,366.557 63.492,366.561 62.613 C 366.566 61.546,367.645 61.041,368.465 61.721 M320.283 61.765 C 321.381 62.332,321.394 65.157,320.301 65.742 C 319.155 66.355,318.148 65.604,318.050 64.062 C 317.922 62.054,318.899 61.049,320.283 61.765 M368.842 67.051 C 369.247 67.268,369.243 67.770,368.831 68.182 C 368.232 68.781,366.234 68.489,366.234 67.803 C 366.234 67.005,367.873 66.533,368.842 67.051 " stroke="none" fill="#15803d" fill-rule="evenodd"></path></g></svg>